<svg width="39" height="29" viewBox="0 0 39 29" fill="none" xmlns="http://www.w3.org/2000/svg">
<path d="M6.79398 9.2669C5.54745 11.0756 5.03607 13.6978 5.35388 15.8867C6.03412 20.5736 10.4917 24.4442 15.2938 23.6989C15.3488 23.6906 15.4044 23.7107 15.4407 23.7528C15.996 24.4035 16.5177 25.0853 17.1019 25.7112C17.4883 26.1252 17.9592 26.591 18.3676 26.9871C18.7005 27.31 19.0739 27.593 19.4068 27.9187C19.4933 28.0036 19.4604 28.1492 19.3464 28.1878C16.1828 29.2533 12.6896 29.3092 9.55405 28.0815C0.0279945 24.3538 -3.12265 12.9995 3.54312 5.00092C6.47892 1.47744 11.7348 -0.43887 16.2631 0.0855802C26.606 1.28284 32.7514 12.7255 27.256 21.8923C26.9505 22.4016 26.5565 22.8943 26.2428 23.4029C26.2298 23.4243 26.212 23.4422 26.19 23.4553C26.1358 23.4885 26.0678 23.4857 26.0163 23.4498C24.6421 22.4948 23.1869 21.6053 22.1278 20.2838C22.0866 20.2327 22.0811 20.161 22.1127 20.1037C22.2081 19.9319 22.4607 19.6496 22.5307 19.5454C23.9358 17.4538 24.3428 14.5376 23.7168 12.1024C21.6748 4.15973 11.349 2.65538 6.79398 9.2669Z" fill="white"/>
<path d="M38.671 17.9991C38.6477 17.995 38.623 17.9929 38.599 17.9929C36.9783 17.9784 35.379 17.9405 33.7481 18.0046C33.4454 18.0171 32.6992 17.9377 32.4514 18.0812C31.9641 18.3635 32.2338 18.941 32.4501 19.2067C32.5558 19.3365 32.6889 19.3937 32.7843 19.5007C33.0946 19.8485 33.3952 20.2052 33.7028 20.5544C33.7611 20.6207 33.7288 20.7352 33.6369 20.7863C31.5193 21.9628 29.8973 25.2068 27.6925 25.1827C24.8961 25.1523 21.4784 21.6433 18.9277 20.8732C18.9256 20.8732 18.9243 20.8719 18.9222 20.8719C18.6469 20.789 18.3662 20.9878 18.3559 21.2762C18.3079 22.5929 18.336 23.9116 18.3532 25.2296C18.3559 25.4622 18.5357 25.6561 18.7671 25.6685C22.171 25.8562 24.9894 29.4887 28.5368 28.9449C30.7896 28.5999 33.8126 24.5016 35.8306 23.1277C35.9096 23.0739 36.0071 23.0911 36.04 23.1663C36.0633 23.2188 36.0867 23.2712 36.1231 23.3161C36.4189 23.6846 36.9488 24.3636 37.3003 24.65C37.5398 24.8542 37.9688 24.7549 38.1349 24.4416C38.1569 24.4002 38.1693 24.3539 38.1761 24.307C38.2619 23.6866 39.0026 18.469 39.0012 18.449C39.0081 18.1606 38.947 18.0502 38.6731 17.9991H38.671Z" fill="white"/>
</svg>
