<svg width="57" height="55" viewBox="0 0 57 55" fill="none" xmlns="http://www.w3.org/2000/svg">
<g clip-path="url(#clip0_525_124)">
<path d="M17.794 20.2669C16.5475 22.0756 16.0361 24.6978 16.3539 26.8867C17.0341 31.5736 21.4917 35.4442 26.2938 34.6989C26.3488 34.6906 26.4044 34.7107 26.4407 34.7528C26.996 35.4035 27.5177 36.0853 28.1019 36.7112C28.4883 37.1252 28.9592 37.591 29.3676 37.9871C29.7005 38.31 30.0739 38.593 30.4068 38.9187C30.4933 39.0036 30.4604 39.1492 30.3464 39.1878C27.1828 40.2533 23.6896 40.3092 20.5541 39.0815C11.028 35.3538 7.87735 23.9995 14.5431 16.0009C17.4789 12.4774 22.7348 10.5611 27.2631 11.0856C37.606 12.2828 43.7514 23.7255 38.256 32.8923C37.9505 33.4016 37.5565 33.8943 37.2428 34.4029C37.2298 34.4243 37.212 34.4422 37.19 34.4553C37.1358 34.4885 37.0678 34.4857 37.0163 34.4498C35.6421 33.4948 34.1869 32.6053 33.1278 31.2838C33.0866 31.2327 33.0811 31.161 33.1127 31.1037C33.2081 30.9319 33.4607 30.6496 33.5307 30.5454C34.9358 28.4538 35.3428 25.5376 34.7168 23.1024C32.6748 15.1597 22.349 13.6554 17.794 20.2669Z" fill="white"/>
<path d="M49.671 28.9991C49.6477 28.995 49.623 28.9929 49.599 28.9929C47.9783 28.9784 46.379 28.9405 44.7481 29.0046C44.4454 29.0171 43.6992 28.9377 43.4514 29.0812C42.9641 29.3635 43.2338 29.941 43.4501 30.2067C43.5558 30.3365 43.6889 30.3937 43.7843 30.5007C44.0946 30.8485 44.3952 31.2052 44.7028 31.5544C44.7611 31.6207 44.7288 31.7352 44.6369 31.7863C42.5193 32.9628 40.8973 36.2068 38.6925 36.1827C35.8961 36.1523 32.4784 32.6433 29.9277 31.8732C29.9256 31.8732 29.9243 31.8719 29.9222 31.8719C29.6469 31.789 29.3662 31.9878 29.3559 32.2762C29.3079 33.5929 29.336 34.9116 29.3532 36.2296C29.3559 36.4622 29.5357 36.6561 29.7671 36.6685C33.171 36.8562 35.9894 40.4887 39.5368 39.9449C41.7896 39.5999 44.8126 35.5016 46.8306 34.1277C46.9096 34.0739 47.0071 34.0911 47.04 34.1663C47.0633 34.2188 47.0867 34.2712 47.1231 34.3161C47.4189 34.6846 47.9488 35.3636 48.3003 35.65C48.5398 35.8542 48.9688 35.7549 49.1349 35.4416C49.1569 35.4002 49.1693 35.3539 49.1761 35.307C49.2619 34.6866 50.0026 29.469 50.0012 29.449C50.0081 29.1606 49.947 29.0502 49.6731 28.9991H49.671Z" fill="white"/>
</g>
<defs>
<clipPath id="clip0_525_124">
<rect width="39" height="29" fill="white" transform="translate(11 11)"/>
</clipPath>
</defs>
</svg>
