<svg width="29" height="24" viewBox="0 0 29 24" fill="none" xmlns="http://www.w3.org/2000/svg">
<path d="M12.9597 22.1198C11.0865 22.2636 9.35621 21.4124 7.82391 20.4327C6.56339 21.4031 3.43904 25.9312 2.02975 22.9253C1.11482 20.9728 4.28486 19.246 5.36145 17.8804L5.04281 13.3382C-1.66628 14.3951 -1.69557 8.77851 5.04281 9.82958C4.93152 8.90712 5.23727 7.67482 4.98072 6.81549C4.56484 5.41835 0.988299 4.21996 2.02975 1.99856C3.6054 -1.3616 6.76958 4.29479 8.12615 4.55317C10.6554 4.10538 18.9893 5.28974 20.7454 4.28309C21.856 3.64707 24.5527 -0.905631 26.1705 1.76122C27.5833 4.08785 24.0056 5.07812 23.5745 6.52203C23.2992 7.44684 23.6413 8.83112 23.5124 9.82958C29.9673 8.76682 29.8923 14.3507 23.5124 13.3382L22.6783 17.5402C23.6472 19.1454 27.0058 20.7098 26.3873 22.7885C25.2732 26.5275 20.8707 20.4175 20.4385 20.4151C19.069 21.4814 17.3657 22.1701 15.5967 22.1209V8.51194C14.9723 7.74614 13.8418 8.15535 12.9574 8.07351V22.1221L12.9597 22.1198Z" fill="white"/>
</svg>
