<svg width="147" height="43" viewBox="0 0 147 43" fill="none" xmlns="http://www.w3.org/2000/svg">
<path d="M19.256 35.576C16.632 35.576 14.184 35.144 11.912 34.28C9.672 33.416 7.72 32.2 6.056 30.632C4.424 29.064 3.144 27.224 2.216 25.112C1.32 23 0.872 20.696 0.872 18.2C0.872 15.704 1.32 13.4 2.216 11.288C3.144 9.176 4.44 7.336 6.104 5.768C7.768 4.2 9.72 2.984 11.96 2.12C14.2 1.256 16.632 0.823999 19.256 0.823999C21.912 0.823999 24.344 1.256 26.552 2.12C28.792 2.984 30.728 4.2 32.36 5.768C34.024 7.304 35.32 9.128 36.248 11.24C37.176 13.352 37.64 15.672 37.64 18.2C37.64 20.696 37.176 23.016 36.248 25.16C35.32 27.272 34.024 29.112 32.36 30.68C30.728 32.216 28.792 33.416 26.552 34.28C24.344 35.144 21.912 35.576 19.256 35.576ZM30.248 42.728C28.936 42.728 27.688 42.584 26.504 42.296C25.352 42.008 24.2 41.544 23.048 40.904C21.928 40.264 20.744 39.4 19.496 38.312C18.28 37.224 16.952 35.88 15.512 34.28L23.672 32.216C24.536 33.4 25.336 34.344 26.072 35.048C26.808 35.752 27.512 36.248 28.184 36.536C28.888 36.824 29.624 36.968 30.392 36.968C32.44 36.968 34.264 36.136 35.864 34.472L39.32 38.6C37.048 41.352 34.024 42.728 30.248 42.728ZM19.256 28.952C20.76 28.952 22.136 28.696 23.384 28.184C24.664 27.672 25.784 26.936 26.744 25.976C27.704 25.016 28.44 23.88 28.952 22.568C29.496 21.224 29.768 19.768 29.768 18.2C29.768 16.6 29.496 15.144 28.952 13.832C28.44 12.52 27.704 11.384 26.744 10.424C25.784 9.464 24.664 8.728 23.384 8.216C22.136 7.704 20.76 7.448 19.256 7.448C17.752 7.448 16.36 7.704 15.08 8.216C13.8 8.728 12.68 9.464 11.72 10.424C10.792 11.384 10.056 12.52 9.512 13.832C9 15.144 8.744 16.6 8.744 18.2C8.744 19.768 9 21.224 9.512 22.568C10.056 23.88 10.792 25.016 11.72 25.976C12.68 26.936 13.8 27.672 15.08 28.184C16.36 28.696 17.752 28.952 19.256 28.952ZM41.42 27.32V25.336H49.804V27.32H41.42ZM65.4408 35.192C63.7341 35.192 62.1554 34.9147 60.7048 34.36C59.2754 33.784 58.0274 32.984 56.9608 31.96C55.9154 30.936 55.0941 29.7307 54.4968 28.344C53.9208 26.9573 53.6328 25.4427 53.6328 23.8C53.6328 22.1573 53.9208 20.6427 54.4968 19.256C55.0941 17.8693 55.9261 16.664 56.9928 15.64C58.0594 14.616 59.3074 13.8267 60.7368 13.272C62.1874 12.696 63.7661 12.408 65.4728 12.408C67.1794 12.408 68.7368 12.6747 70.1448 13.208C71.5741 13.7413 72.7901 14.552 73.7928 15.64L72.3208 17.144C71.3821 16.2053 70.3474 15.5333 69.2168 15.128C68.0861 14.7227 66.8701 14.52 65.5688 14.52C64.1821 14.52 62.9021 14.7547 61.7288 15.224C60.5768 15.672 59.5634 16.3227 58.6888 17.176C57.8354 18.008 57.1634 18.9893 56.6727 20.12C56.2034 21.2293 55.9688 22.456 55.9688 23.8C55.9688 25.1227 56.2034 26.3493 56.6727 27.48C57.1634 28.6107 57.8354 29.6027 58.6888 30.456C59.5634 31.288 60.5768 31.9387 61.7288 32.408C62.9021 32.856 64.1714 33.08 65.5368 33.08C66.8168 33.08 68.0221 32.888 69.1528 32.504C70.3048 32.12 71.3608 31.4693 72.3208 30.552L73.6648 32.344C72.5981 33.2827 71.3501 33.9973 69.9208 34.488C68.4914 34.9573 66.9981 35.192 65.4408 35.192ZM71.3928 32.056V23.8H73.6648V32.344L71.3928 32.056ZM79.8868 35V18.2H82.0628V22.776L81.8388 21.976C82.3081 20.696 83.0974 19.7253 84.2068 19.064C85.3161 18.3813 86.6921 18.04 88.3348 18.04V20.248C88.2494 20.248 88.1641 20.248 88.0788 20.248C87.9934 20.2267 87.9081 20.216 87.8228 20.216C86.0521 20.216 84.6654 20.76 83.6628 21.848C82.6601 22.9147 82.1588 24.44 82.1588 26.424V35H79.8868ZM101.759 35V31.288L101.663 30.68V24.472C101.663 23.0427 101.257 21.944 100.447 21.176C99.6572 20.408 98.4732 20.024 96.8945 20.024C95.8065 20.024 94.7718 20.2053 93.7905 20.568C92.8092 20.9307 91.9772 21.4107 91.2945 22.008L90.2705 20.312C91.1238 19.5867 92.1478 19.032 93.3425 18.648C94.5372 18.2427 95.7958 18.04 97.1185 18.04C99.2945 18.04 100.969 18.584 102.143 19.672C103.337 20.7387 103.935 22.3707 103.935 24.568V35H101.759ZM95.9665 35.16C94.7078 35.16 93.6092 34.9573 92.6705 34.552C91.7532 34.1253 91.0492 33.5493 90.5585 32.824C90.0678 32.0773 89.8225 31.224 89.8225 30.264C89.8225 29.3893 90.0252 28.6 90.4305 27.896C90.8572 27.1707 91.5398 26.5947 92.4785 26.168C93.4385 25.72 94.7185 25.496 96.3185 25.496H102.111V27.192H96.3825C94.7612 27.192 93.6305 27.48 92.9905 28.056C92.3718 28.632 92.0625 29.3467 92.0625 30.2C92.0625 31.16 92.4358 31.928 93.1825 32.504C93.9292 33.08 94.9745 33.368 96.3185 33.368C97.5985 33.368 98.6972 33.08 99.6145 32.504C100.553 31.9067 101.236 31.0533 101.663 29.944L102.175 31.512C101.748 32.6213 101.001 33.5067 99.9345 34.168C98.8892 34.8293 97.5665 35.16 95.9665 35.16ZM116.794 35.16C115.194 35.16 113.754 34.7973 112.474 34.072C111.215 33.3467 110.223 32.344 109.498 31.064C108.772 29.7627 108.41 28.2693 108.41 26.584C108.41 24.8773 108.772 23.384 109.498 22.104C110.223 20.824 111.215 19.832 112.474 19.128C113.754 18.4027 115.194 18.04 116.794 18.04C118.266 18.04 119.578 18.3707 120.73 19.032C121.903 19.6933 122.831 20.664 123.514 21.944C124.218 23.2027 124.569 24.7493 124.569 26.584C124.569 28.3973 124.228 29.944 123.546 31.224C122.863 32.504 121.935 33.4853 120.762 34.168C119.61 34.8293 118.287 35.16 116.794 35.16ZM116.954 33.144C118.148 33.144 119.215 32.8773 120.154 32.344C121.114 31.7893 121.86 31.0213 122.394 30.04C122.948 29.0373 123.226 27.8853 123.226 26.584C123.226 25.2613 122.948 24.1093 122.394 23.128C121.86 22.1467 121.114 21.3893 120.154 20.856C119.215 20.3013 118.148 20.024 116.954 20.024C115.78 20.024 114.724 20.3013 113.786 20.856C112.847 21.3893 112.1 22.1467 111.546 23.128C110.991 24.1093 110.714 25.2613 110.714 26.584C110.714 27.8853 110.991 29.0373 111.546 30.04C112.1 31.0213 112.847 31.7893 113.786 32.344C114.724 32.8773 115.78 33.144 116.954 33.144ZM123.29 35V29.944L123.514 26.552L123.194 23.16V11.256H125.466V35H123.29ZM138.929 35.16C137.18 35.16 135.644 34.7973 134.321 34.072C132.998 33.3253 131.964 32.312 131.217 31.032C130.47 29.7307 130.097 28.248 130.097 26.584C130.097 24.92 130.449 23.448 131.153 22.168C131.878 20.888 132.86 19.8853 134.097 19.16C135.356 18.4133 136.764 18.04 138.321 18.04C139.9 18.04 141.297 18.4027 142.513 19.128C143.75 19.832 144.721 20.8347 145.425 22.136C146.129 23.416 146.481 24.8987 146.481 26.584C146.481 26.6907 146.47 26.808 146.449 26.936C146.449 27.0427 146.449 27.16 146.449 27.288H131.825V25.592H145.233L144.337 26.264C144.337 25.048 144.07 23.9707 143.537 23.032C143.025 22.072 142.321 21.3253 141.425 20.792C140.529 20.2587 139.494 19.992 138.321 19.992C137.169 19.992 136.134 20.2587 135.217 20.792C134.3 21.3253 133.585 22.072 133.073 23.032C132.561 23.992 132.305 25.0907 132.305 26.328V26.68C132.305 27.96 132.582 29.0907 133.137 30.072C133.713 31.032 134.502 31.7893 135.505 32.344C136.529 32.8773 137.692 33.144 138.993 33.144C140.017 33.144 140.966 32.9627 141.841 32.6C142.737 32.2373 143.505 31.6827 144.145 30.936L145.425 32.408C144.678 33.304 143.74 33.9867 142.609 34.456C141.5 34.9253 140.273 35.16 138.929 35.16Z" fill="white"/>
</svg>
