<svg width="239" height="85" viewBox="0 0 239 85" fill="none" xmlns="http://www.w3.org/2000/svg">
<path d="M37.512 70.152C32.264 70.152 27.368 69.288 22.824 67.56C18.344 65.832 14.44 63.4 11.112 60.264C7.848 57.128 5.288 53.448 3.432 49.224C1.64 45 0.744 40.392 0.744 35.4C0.744 30.408 1.64 25.8 3.432 21.576C5.288 17.352 7.88 13.672 11.208 10.536C14.536 7.4 18.44 4.96799 22.92 3.23999C27.4 1.512 32.264 0.647999 37.512 0.647999C42.824 0.647999 47.688 1.512 52.104 3.23999C56.584 4.96799 60.456 7.4 63.72 10.536C67.048 13.608 69.64 17.256 71.496 21.48C73.352 25.704 74.28 30.344 74.28 35.4C74.28 40.392 73.352 45.032 71.496 49.32C69.64 53.544 67.048 57.224 63.72 60.36C60.456 63.432 56.584 65.832 52.104 67.56C47.688 69.288 42.824 70.152 37.512 70.152ZM59.496 84.456C56.872 84.456 54.376 84.168 52.008 83.592C49.704 83.016 47.4 82.088 45.096 80.808C42.856 79.528 40.488 77.8 37.992 75.624C35.56 73.448 32.904 70.76 30.024 67.56L46.344 63.432C48.072 65.8 49.672 67.688 51.144 69.096C52.616 70.504 54.024 71.496 55.368 72.072C56.776 72.648 58.248 72.936 59.784 72.936C63.88 72.936 67.528 71.272 70.728 67.944L77.64 76.2C73.096 81.704 67.048 84.456 59.496 84.456ZM37.512 56.904C40.52 56.904 43.272 56.392 45.768 55.368C48.328 54.344 50.568 52.872 52.488 50.952C54.408 49.032 55.88 46.76 56.904 44.136C57.992 41.448 58.536 38.536 58.536 35.4C58.536 32.2 57.992 29.288 56.904 26.664C55.88 24.04 54.408 21.768 52.488 19.848C50.568 17.928 48.328 16.456 45.768 15.432C43.272 14.408 40.52 13.896 37.512 13.896C34.504 13.896 31.72 14.408 29.16 15.432C26.6 16.456 24.36 17.928 22.44 19.848C20.584 21.768 19.112 24.04 18.024 26.664C17 29.288 16.488 32.2 16.488 35.4C16.488 38.536 17 41.448 18.024 44.136C19.112 46.76 20.584 49.032 22.44 50.952C24.36 52.872 26.6 54.344 29.16 55.368C31.72 56.392 34.504 56.904 37.512 56.904ZM80.88 57.48V54.504H93.456V57.48H80.88ZM116.911 69.288C114.351 69.288 111.983 68.872 109.807 68.04C107.663 67.176 105.791 65.976 104.191 64.44C102.623 62.904 101.391 61.096 100.495 59.016C99.6311 56.936 99.1991 54.664 99.1991 52.2C99.1991 49.736 99.6311 47.464 100.495 45.384C101.391 43.304 102.639 41.496 104.239 39.96C105.839 38.424 107.711 37.24 109.855 36.408C112.031 35.544 114.399 35.112 116.959 35.112C119.519 35.112 121.855 35.512 123.967 36.312C126.111 37.112 127.935 38.328 129.439 39.96L127.231 42.216C125.823 40.808 124.271 39.8 122.575 39.192C120.879 38.584 119.055 38.28 117.103 38.28C115.023 38.28 113.103 38.632 111.343 39.336C109.615 40.008 108.095 40.984 106.783 42.264C105.503 43.512 104.495 44.984 103.759 46.68C103.055 48.344 102.703 50.184 102.703 52.2C102.703 54.184 103.055 56.024 103.759 57.72C104.495 59.416 105.503 60.904 106.783 62.184C108.095 63.432 109.615 64.408 111.343 65.112C113.103 65.784 115.007 66.12 117.055 66.12C118.975 66.12 120.783 65.832 122.479 65.256C124.207 64.68 125.791 63.704 127.231 62.328L129.247 65.016C127.647 66.424 125.775 67.496 123.631 68.232C121.487 68.936 119.247 69.288 116.911 69.288ZM125.839 64.584V52.2H129.247V65.016L125.839 64.584ZM138.58 69V43.8H141.844V50.664L141.508 49.464C142.212 47.544 143.396 46.088 145.06 45.096C146.724 44.072 148.788 43.56 151.252 43.56V46.872C151.124 46.872 150.996 46.872 150.868 46.872C150.74 46.84 150.612 46.824 150.484 46.824C147.828 46.824 145.748 47.64 144.244 49.272C142.74 50.872 141.988 53.16 141.988 56.136V69H138.58ZM171.388 69V63.432L171.244 62.52V53.208C171.244 51.064 170.636 49.416 169.42 48.264C168.236 47.112 166.46 46.536 164.092 46.536C162.46 46.536 160.908 46.808 159.436 47.352C157.964 47.896 156.716 48.616 155.692 49.512L154.156 46.968C155.436 45.88 156.972 45.048 158.764 44.472C160.556 43.864 162.444 43.56 164.428 43.56C167.692 43.56 170.204 44.376 171.964 46.008C173.756 47.608 174.652 50.056 174.652 53.352V69H171.388ZM162.7 69.24C160.812 69.24 159.164 68.936 157.756 68.328C156.38 67.688 155.324 66.824 154.588 65.736C153.852 64.616 153.484 63.336 153.484 61.896C153.484 60.584 153.788 59.4 154.396 58.344C155.036 57.256 156.06 56.392 157.468 55.752C158.908 55.08 160.828 54.744 163.228 54.744H171.916V57.288H163.324C160.892 57.288 159.196 57.72 158.236 58.584C157.308 59.448 156.844 60.52 156.844 61.8C156.844 63.24 157.404 64.392 158.524 65.256C159.644 66.12 161.212 66.552 163.228 66.552C165.148 66.552 166.796 66.12 168.172 65.256C169.58 64.36 170.604 63.08 171.244 61.416L172.012 63.768C171.372 65.432 170.252 66.76 168.652 67.752C167.084 68.744 165.1 69.24 162.7 69.24ZM193.94 69.24C191.54 69.24 189.38 68.696 187.46 67.608C185.572 66.52 184.084 65.016 182.996 63.096C181.908 61.144 181.364 58.904 181.364 56.376C181.364 53.816 181.908 51.576 182.996 49.656C184.084 47.736 185.572 46.248 187.46 45.192C189.38 44.104 191.54 43.56 193.94 43.56C196.148 43.56 198.116 44.056 199.844 45.048C201.604 46.04 202.996 47.496 204.02 49.416C205.076 51.304 205.604 53.624 205.604 56.376C205.604 59.096 205.092 61.416 204.068 63.336C203.044 65.256 201.652 66.728 199.892 67.752C198.164 68.744 196.18 69.24 193.94 69.24ZM194.18 66.216C195.972 66.216 197.572 65.816 198.98 65.016C200.42 64.184 201.54 63.032 202.34 61.56C203.172 60.056 203.588 58.328 203.588 56.376C203.588 54.392 203.172 52.664 202.34 51.192C201.54 49.72 200.42 48.584 198.98 47.784C197.572 46.952 195.972 46.536 194.18 46.536C192.42 46.536 190.836 46.952 189.428 47.784C188.02 48.584 186.9 49.72 186.068 51.192C185.236 52.664 184.82 54.392 184.82 56.376C184.82 58.328 185.236 60.056 186.068 61.56C186.9 63.032 188.02 64.184 189.428 65.016C190.836 65.816 192.42 66.216 194.18 66.216ZM203.684 69V61.416L204.02 56.328L203.54 51.24V33.384H206.948V69H203.684ZM227.144 69.24C224.52 69.24 222.216 68.696 220.232 67.608C218.248 66.488 216.696 64.968 215.576 63.048C214.456 61.096 213.896 58.872 213.896 56.376C213.896 53.88 214.424 51.672 215.48 49.752C216.568 47.832 218.04 46.328 219.896 45.24C221.784 44.12 223.896 43.56 226.232 43.56C228.6 43.56 230.696 44.104 232.52 45.192C234.376 46.248 235.832 47.752 236.888 49.704C237.944 51.624 238.472 53.848 238.472 56.376C238.472 56.536 238.456 56.712 238.424 56.904C238.424 57.064 238.424 57.24 238.424 57.432H216.488V54.888H236.6L235.256 55.896C235.256 54.072 234.856 52.456 234.056 51.048C233.288 49.608 232.232 48.488 230.888 47.688C229.544 46.888 227.992 46.488 226.232 46.488C224.504 46.488 222.952 46.888 221.576 47.688C220.2 48.488 219.128 49.608 218.36 51.048C217.592 52.488 217.208 54.136 217.208 55.992V56.52C217.208 58.44 217.624 60.136 218.456 61.608C219.32 63.048 220.504 64.184 222.008 65.016C223.544 65.816 225.288 66.216 227.24 66.216C228.776 66.216 230.2 65.944 231.512 65.4C232.856 64.856 234.008 64.024 234.968 62.904L236.888 65.112C235.768 66.456 234.36 67.48 232.664 68.184C231 68.888 229.16 69.24 227.144 69.24Z" fill="white"/>
</svg>
