<svg width="26" height="26" viewBox="0 0 26 26" fill="none" xmlns="http://www.w3.org/2000/svg">
<g clip-path="url(#clip0_772_206)">
<path d="M21.901 17.4749C22.094 17.4323 22.2637 17.5093 22.3671 17.6862L23.4939 20.2085L25.8183 21.3386C26.0607 21.5155 26.0607 21.9463 25.8183 22.1232L23.4939 23.2533L22.3671 25.7756C22.2313 26 22.0013 26.0655 21.7791 25.9296C21.4442 25.7249 20.8638 23.6693 20.5104 23.2517L18.1859 22.1215C17.9436 21.9446 17.9436 21.5139 18.1859 21.337L20.5397 20.1757L21.7143 17.5813C21.7652 17.5338 21.8346 17.4863 21.901 17.4716V17.4749ZM24.5018 21.6711L21.9736 24.3507L21.1139 22.5212L21.2095 22.7226C20.7172 23.0649 21.6433 22.382 21.137 22.6915C21.0753 22.7292 19.4793 21.6334 19.5056 21.7612L21.1447 22.5834L22.0044 24.4129L22.8364 22.6145C23.2901 22.2591 24.778 21.3632 24.4292 21.8071C23.3457 23.1911 24.5326 21.8136 24.5033 21.6711H24.5018Z" fill="white" stroke="white" stroke-width="0.25" stroke-miterlimit="10"/>
<path d="M13.1473 1.82825C13.6675 1.71524 14.1213 1.91997 14.3991 2.39823L17.4274 9.17578L23.6738 12.2108C24.3236 12.6841 24.3251 13.8454 23.6738 14.3187L17.4274 17.3537L14.3991 24.1313C14.0348 24.7324 13.4159 24.9109 12.8186 24.5473C11.9187 23.9969 10.3598 18.4757 9.41061 17.3537L3.1642 14.3187C2.5144 13.8454 2.51286 12.6841 3.1642 12.2108L9.48624 9.09225L12.6426 2.12307C12.78 1.99532 12.9683 1.86756 13.1458 1.82825H13.1473ZM20.1331 13.1034L15.7311 10.9758L13.419 6.06053L11.2504 10.7989C9.92612 11.7178 8.3734 12.1911 7.00897 13.0199C6.84073 13.1214 6.63391 13.0035 6.70337 13.3442L11.1069 15.5537L13.4174 20.469L15.6508 15.6356C16.8702 14.6823 18.7023 14.3138 19.9324 13.4687C20.0821 13.3655 20.2087 13.4867 20.13 13.1051L20.1331 13.1034Z" fill="white"/>
<path d="M3.89687 0.0114889C4.0898 -0.0310959 4.25958 0.0458844 4.36299 0.222775L5.48972 2.74511L7.81418 3.87525C8.05651 4.05214 8.05651 4.4829 7.81418 4.65979L5.48972 5.78993L4.36299 8.31226C4.22717 8.53665 3.99719 8.60216 3.77493 8.46622C3.44 8.26149 2.85966 6.20595 2.5062 5.78829L0.181743 4.66143C-0.0605811 4.48454 -0.0605811 4.05377 0.181743 3.87688L2.53553 2.71563L3.71011 0.121227C3.76104 0.0737283 3.8305 0.0262298 3.89687 0.0114889ZM6.49761 4.20937L3.96941 6.88894L3.1097 5.05943L3.20539 5.26089C2.71303 5.60321 3.63911 4.92021 3.13285 5.22977C3.07111 5.26744 1.47517 4.1717 1.50141 4.29946L3.14057 5.12167L4.00028 6.95118L4.83221 5.15279C5.28599 4.79737 6.77389 3.90145 6.42506 4.34532C5.34155 5.72932 6.52848 4.35187 6.49915 4.20937H6.49761Z" fill="white" stroke="white" stroke-width="0.25" stroke-miterlimit="10"/>
</g>
<defs>
<clipPath id="clip0_772_206">
<rect width="26" height="26" fill="white"/>
</clipPath>
</defs>
</svg>
