<svg width="27" height="19" viewBox="0 0 27 19" fill="none" xmlns="http://www.w3.org/2000/svg">
<path d="M22.9985 16.8266C23.0138 17.7222 23.7498 18.4334 24.6455 18.418C25.5411 18.4026 26.2522 17.6666 26.2369 16.771L26.1535 11.9134C26.1074 9.23155 23.8943 7.0931 21.2125 7.13914L5.69338 7.40559L9.34367 3.62777C9.96531 2.98441 9.94767 1.95722 9.30431 1.33558C8.66095 0.713936 7.63377 0.731572 7.01212 1.37493L0.646499 7.96296C0.0248565 8.60632 0.042492 9.6335 0.685854 10.2551L7.27388 16.6208C7.91724 17.2424 8.94442 17.2248 9.56607 16.5814C10.1877 15.9381 10.1701 14.9109 9.52671 14.2892L5.74898 10.644L21.2681 10.3776C22.1637 10.3622 22.8997 11.0733 22.9151 11.969L22.9985 16.8266Z" fill="white"/>
</svg>
